<svg width="40" height="40" viewBox="0 0 40 40" fill="none" xmlns="http://www.w3.org/2000/svg">
<rect width="40" height="40" rx="20" fill="#A7268D" fill-opacity="0.3"/>
<path d="M8 15.1584V24.8416H14.156L21.3144 32V8L14.156 15.1584H8ZM19.4988 12.3833V27.6167L14.9081 23.026H9.8156V16.974H14.9081L19.4988 12.3833ZM24.1709 18.0742C24.6809 18.5855 24.9673 19.278 24.9673 20C24.9673 20.7221 24.6809 21.4146 24.1709 21.9257L25.454 23.2095C26.3039 22.3576 26.7812 21.2034 26.7812 20C26.7812 18.7966 26.3039 17.6424 25.454 16.7904L24.1709 18.0742ZM28.9502 13.367L27.6524 14.6371C29.0534 16.0723 29.8281 18.0046 29.8062 20.0101C29.7843 22.0158 28.9678 23.9307 27.5357 25.3349L28.8056 26.633C30.5815 24.8917 31.594 22.517 31.6211 20.0299C31.6483 17.5429 30.6877 15.1467 28.9502 13.367Z" fill="white"/>
</svg>
